{
  "accessors": [
    {
      "bufferView": 2,
      "componentType": 5126,
      "count": 170,
      "max": [
        2.0126469135284424,
        1.9390900135040283,
        -3.8085529804229736
      ],
      "min": [
        -1.9406780004501343,
        1.6378870010375977,
        -8.4105091094970703
      ],
      "type": "VEC3"
    },
    {
      "bufferView": 2,
      "byteOffset": 2040,
      "componentType": 5126,
      "count": 170,
      "max": [
        0.94308829307556152,
        0.75372910499572754,
        0.92555779218673706
      ],
      "min": [
        -0.94308829307556152,
        -0.92310184240341187,
        -0.89291071891784668
      ],
      "type": "VEC3"
    },
    {
      "bufferView": 3,
      "componentType": 5126,
      "count": 170,
      "max": [
        0.98994582891464233,
        0.94192272424697876,
        0.98582428693771362,
        1
      ],
      "min": [
        -0.77492928504943848,
        -0.94726496934890747,
        -0.85143738985061646,
        1
      ],
      "type": "VEC4"
    },
    {
      "bufferView": 1,
      "componentType": 5126,
      "count": 170,
      "max": [
        0.99226802587509155,
        0.99168801307678223
      ],
      "min": [
        0.027576999738812447,
        0.01524099987000227
      ],
      "type": "VEC2"
    },
    {
      "bufferView": 0,
      "componentType": 5125,
      "count": 708,
      "max": [
        169
      ],
      "min": [
        0
      ],
      "type": "SCALAR"
    },
    {
      "bufferView": 2,
      "byteOffset": 4080,
      "componentType": 5126,
      "count": 26,
      "max": [
        1.0170609951019287,
        1.6016360521316528,
        -4.3546390533447266
      ],
      "min": [
        -0.99546301364898682,
        0.93616098165512085,
        -6.8653841018676758
      ],
      "type": "VEC3"
    },
    {
      "bufferView": 1,
      "byteOffset": 1360,
      "componentType": 5126,
      "count": 26,
      "max": [
        0,
        0
      ],
      "min": [
        0,
        0
      ],
      "type": "VEC2"
    },
    {
      "bufferView": 0,
      "byteOffset": 2832,
      "componentType": 5125,
      "count": 26,
      "max": [
        25
      ],
      "min": [
        0
      ],
      "type": "SCALAR"
    },
    {
      "bufferView": 2,
      "byteOffset": 4392,
      "componentType": 5126,
      "count": 3679,
      "max": [
        1.1030639410018921,
        1.6135749816894531,
        -4.1659741401672363
      ],
      "min": [
        -1.0813690423965454,
        -0.67790102958679199,
        -8.1688966751098633
      ],
      "type": "VEC3"
    },
    {
      "bufferView": 2,
      "byteOffset": 48540,
      "componentType": 5126,
      "count": 3679,
      "max": [
        0.99988424777984619,
        0.99912554025650024,
        0.99582719802856445
      ],
      "min": [
        -0.99893069267272949,
        -0.99952191114425659,
        -0.99828249216079712
      ],
      "type": "VEC3"
    },
    {
      "bufferView": 3,
      "byteOffset": 2720,
      "componentType": 5126,
      "count": 3679,
      "max": [
        0.99678295850753784,
        0.99980199337005615,
        0.99512749910354614,
        1
      ],
      "min": [
        -0.99971002340316772,
        -0.99974507093429565,
        -0.99983572959899902,
        1
      ],
      "type": "VEC4"
    },
    {
      "bufferView": 1,
      "byteOffset": 1568,
      "componentType": 5126,
      "count": 3679,
      "max": [
        0.99946600198745728,
        0.98475801944732666
      ],
      "min": [
        0.00053399999160319567,
        0.00053399999160319567
      ],
      "type": "VEC2"
    },
    {
      "bufferView": 0,
      "byteOffset": 2936,
      "componentType": 5125,
      "count": 19332,
      "max": [
        3678
      ],
      "min": [
        0
      ],
      "type": "SCALAR"
    },
    {
      "bufferView": 2,
      "byteOffset": 92688,
      "componentType": 5126,
      "count": 2213,
      "max": [
        1.5019199848175049,
        1.72080397605896,
        -4.2398300170898438
      ],
      "min": [
        -1.4810349941253662,
        1.0081830024719238,
        -8.3430900573730469
      ],
      "type": "VEC3"
    },
    {
      "bufferView": 2,
      "byteOffset": 119244,
      "componentType": 5126,
      "count": 2213,
      "max": [
        0.99971157312393188,
        0.99976283311843872,
        0.99751698970794678
      ],
      "min": [
        -0.9998132586479187,
        -0.99998736381530762,
        -0.9993823766708374
      ],
      "type": "VEC3"
    },
    {
      "bufferView": 3,
      "byteOffset": 61584,
      "componentType": 5126,
      "count": 2213,
      "max": [
        0.99982810020446777,
        0.99997949600219727,
        0.99976652860641479,
        1
      ],
      "min": [
        -0.99993854761123657,
        -0.99965149164199829,
        -0.99753177165985107,
        1
      ],
      "type": "VEC4"
    },
    {
      "bufferView": 1,
      "byteOffset": 31000,
      "componentType": 5126,
      "count": 2213,
      "max": [
        0.98886799812316895,
        0.99989700317382812
      ],
      "min": [
        0.00010299999848939478,
        0.00010299999848939478
      ],
      "type": "VEC2"
    },
    {
      "bufferView": 0,
      "byteOffset": 80264,
      "componentType": 5125,
      "count": 9906,
      "max": [
        2212
      ],
      "min": [
        0
      ],
      "type": "SCALAR"
    }
  ],
  "asset": {
    "extras": {
      "author": "Teliri (https://sketchfab.com/Teliri)",
      "license": "CC-BY-4.0 (http://creativecommons.org/licenses/by/4.0/)",
      "source": "https://sketchfab.com/models/67ac2f5efd924bae83ead67c833727c9",
      "title": "Hunting Trophy (40k)"
    },
    "generator": "Sketchfab-3.21.1",
    "version": "2.0"
  },
  "bufferViews": [
    {
      "buffer": 0,
      "byteLength": 119888,
      "byteOffset": 0,
      "name": "floatBufferViews",
      "target": 34963
    },
    {
      "buffer": 0,
      "byteLength": 48704,
      "byteOffset": 119888,
      "byteStride": 8,
      "name": "floatBufferViews",
      "target": 34962
    },
    {
      "buffer": 0,
      "byteLength": 145800,
      "byteOffset": 168592,
      "byteStride": 12,
      "name": "floatBufferViews",
      "target": 34962
    },
    {
      "buffer": 0,
      "byteLength": 96992,
      "byteOffset": 314392,
      "byteStride": 16,
      "name": "floatBufferViews",
      "target": 34962
    }
  ],
  "buffers": [
    {
      "byteLength": 411384,
      "uri": "scene.bin"
    }
  ],
  "images": [
    {
      "uri": "textures/flesh_metallicRoughness.png"
    },
    {
      "uri": "textures/flesh_normal.jpg"
    },
    {
      "uri": "textures/flesh_baseColor.jpg"
    },
    {
      "uri": "textures/bronze_metallicRoughness.png"
    },
    {
      "uri": "textures/bronze_normal.png"
    },
    {
      "uri": "textures/bronze_baseColor.jpg"
    },
    {
      "uri": "textures/metal_baseColor.jpg"
    },
    {
      "uri": "textures/metal_normal.jpg"
    },
    {
      "uri": "textures/metal_metallicRoughness.png"
    }
  ],
  "materials": [
    {
      "doubleSided": true,
      "emissiveFactor": [
        0,
        0,
        0
      ],
      "name": "bronze",
      "normalTexture": {
        "index": 4,
        "scale": 1,
        "texCoord": 0
      },
      "occlusionTexture": {
        "index": 3,
        "strength": 1,
        "texCoord": 0
      },
      "pbrMetallicRoughness": {
        "baseColorFactor": [
          1,
          1,
          1,
          1
        ],
        "baseColorTexture": {
          "index": 5,
          "texCoord": 0
        },
        "metallicFactor": 1,
        "metallicRoughnessTexture": {
          "index": 3,
          "texCoord": 0
        },
        "roughnessFactor": 0.70618453120000002
      }
    },
    {
      "doubleSided": true,
      "emissiveFactor": [
        0,
        0,
        0
      ],
      "name": "flesh",
      "normalTexture": {
        "index": 1,
        "scale": 1,
        "texCoord": 0
      },
      "occlusionTexture": {
        "index": 0,
        "strength": 1,
        "texCoord": 0
      },
      "pbrMetallicRoughness": {
        "baseColorFactor": [
          1,
          1,
          1,
          1
        ],
        "baseColorTexture": {
          "index": 2,
          "texCoord": 0
        },
        "metallicFactor": 1,
        "metallicRoughnessTexture": {
          "index": 0,
          "texCoord": 0
        },
        "roughnessFactor": 1
      }
    },
    {
      "doubleSided": true,
      "name": "metal",
      "normalTexture": {
        "index": 7,
        "scale": 1,
        "texCoord": 0
      },
      "occlusionTexture": {
        "index": 8,
        "strength": 1,
        "texCoord": 0
      },
      "pbrMetallicRoughness": {
        "baseColorFactor": [
          1,
          1,
          1,
          1
        ],
        "baseColorTexture": {
          "index": 6,
          "texCoord": 0
        },
        "metallicFactor": 1,
        "metallicRoughnessTexture": {
          "index": 8,
          "texCoord": 0
        },
        "roughnessFactor": 1
      }
    }
  ],
  "meshes": [
    {
      "primitives": [
        {
          "attributes": {
            "NORMAL": 1,
            "POSITION": 0,
            "TANGENT": 2,
            "TEXCOORD_0": 3
          },
          "indices": 4,
          "material": 0,
          "mode": 4
        }
      ]
    },
    {
      "primitives": [
        {
          "attributes": {
            "POSITION": 5,
            "TEXCOORD_0": 6
          },
          "indices": 7,
          "material": 1,
          "mode": 1
        }
      ]
    },
    {
      "primitives": [
        {
          "attributes": {
            "NORMAL": 9,
            "POSITION": 8,
            "TANGENT": 10,
            "TEXCOORD_0": 11
          },
          "indices": 12,
          "material": 1,
          "mode": 4
        }
      ]
    },
    {
      "primitives": [
        {
          "attributes": {
            "NORMAL": 14,
            "POSITION": 13,
            "TANGENT": 15,
            "TEXCOORD_0": 16
          },
          "indices": 17,
          "material": 2,
          "mode": 4
        }
      ]
    }
  ],
  "nodes": [
    {
      "children": [
        1
      ],
      "name": "RootNode (gltf orientation matrix)",
      "rotation": [
        -0.70710678118654746,
        -0,
        -0,
        0.70710678118654757
      ]
    },
    {
      "children": [
        2
      ],
      "name": "RootNode (model correction matrix)"
    },
    {
      "children": [
        3,
        4,
        5,
        6
      ],
      "name": "aberrant_head.obj.cleaner.materialmerger.gles"
    },
    {
      "mesh": 0,
      "name": ""
    },
    {
      "mesh": 1,
      "name": ""
    },
    {
      "mesh": 2,
      "name": ""
    },
    {
      "mesh": 3,
      "name": ""
    }
  ],
  "samplers": [
    {
      "magFilter": 9729,
      "minFilter": 9987,
      "wrapS": 10497,
      "wrapT": 10497
    }
  ],
  "scene": 0,
  "scenes": [
    {
      "name": "OSG_Scene",
      "nodes": [
        0
      ]
    }
  ],
  "textures": [
    {
      "sampler": 0,
      "source": 0
    },
    {
      "sampler": 0,
      "source": 1
    },
    {
      "sampler": 0,
      "source": 2
    },
    {
      "sampler": 0,
      "source": 3
    },
    {
      "sampler": 0,
      "source": 4
    },
    {
      "sampler": 0,
      "source": 5
    },
    {
      "sampler": 0,
      "source": 6
    },
    {
      "sampler": 0,
      "source": 7
    },
    {
      "sampler": 0,
      "source": 8
    }
  ]
}

